PathFileType	4	(X/Y/Z)	D:\TRACE\v60_Jaco2_6-2-23\JustBodyDRS_Motion1_4-platform.trc
DataRate	CameraRate	NumFrames	NumMarkers	Units	OrigDataRate	OrigDataStartFrame	OrigNumFrames
100.00	100.00	      65	5	mm	100.00	4348	      6956
Frame#	Time	Left_Front			Right_Front			Left_Aft			Right_Aft			Post			
		X1	Y1	Z1	X2	Y2	Z2	X3	Y3	Z3	X4	Y4	Z4	X5	Y5	Z5	

4348	43.470	-825.11292	-8.84247	-642.74597	744.97791	-7.36024	-647.91193	-733.57416	20.03999	492.29724	709.08557	19.06159	502.00482	-39.41644	1282.01917	-998.44727	
4349	43.480	-824.18616	-9.33001	-642.79950	745.92212	-7.83293	-648.12097	-732.81177	20.37684	492.15628	709.49542	19.12276	501.95956	-38.12914	1281.36951	-999.17780	
4350	43.490	-823.03094	-9.66400	-642.87805	746.70172	-8.08779	-648.19525	-731.19501	20.22168	491.79761	710.99280	19.98040	501.74231	-37.25032	1280.76990	-999.82385	
4351	43.500	-822.38806	-9.89995	-642.72363	747.49371	-8.42063	-648.28540	-730.35181	20.48276	491.75931	711.48199	19.88468	501.57306	-36.14059	1280.26880	-1001.01544	
4352	43.510	-821.80640	-10.35490	-642.96527	748.52936	-8.95020	-648.36493	-729.77698	20.68925	491.75391	712.12561	20.05608	501.59235	-35.58713	1279.65662	-1002.35657	
4353	43.520	-820.74463	-10.75293	-643.40692	749.36035	-9.21391	-648.40820	-728.87286	20.86627	491.65952	712.85260	20.24401	501.50732	-34.45094	1278.83191	-1003.34296	
4354	43.530	-819.81049	-11.02973	-643.19806	749.97827	-9.50113	-648.62561	-727.96521	21.19862	491.59586	713.88599	20.39355	501.26096	-33.81746	1278.23779	-1004.76190	
4355	43.540	-818.94458	-11.24424	-643.15594	751.00006	-9.82510	-648.61414	-727.17279	21.39048	491.48590	714.91040	20.87340	501.35843	-32.88634	1277.95898	-1005.94574	
4356	43.550	-818.37335	-11.44395	-643.32141	751.90680	-10.21700	-648.83704	-726.06799	21.70589	491.36014	715.66345	21.14706	501.21976	-31.89869	1277.42688	-1006.55157	
4357	43.560	-817.18073	-11.87614	-643.78888	752.60016	-10.45310	-648.81964	-725.31781	21.91555	491.22192	716.31201	21.26034	501.20721	-31.27762	1276.98315	-1007.47876	
4358	43.570	-816.38385	-12.34000	-643.58789	753.54517	-10.80584	-648.80499	-725.19061	22.62632	491.42493	717.00238	21.44684	501.03018	-30.24018	1276.33923	-1008.29211	
4359	43.580	-815.52203	-12.79094	-643.43903	754.43451	-11.20189	-649.12067	-724.16455	22.93246	491.31787	718.16614	21.73788	500.93909	-29.28636	1275.86548	-1008.92651	
4360	43.590	-814.60071	-13.07916	-643.66492	755.53552	-11.72463	-649.02716	-723.22504	23.11500	491.11221	719.26611	22.26443	500.96619	-28.54523	1275.35181	-1009.21045	
4361	43.600	-813.66840	-13.40668	-643.94446	756.14435	-11.82618	-648.94415	-722.32971	23.08770	491.06015	720.03680	22.25274	500.61282	-27.81653	1274.89587	-1009.76630	
4362	43.610	-812.77863	-13.56472	-643.79913	757.07440	-12.03346	-649.28333	-721.16742	23.39394	491.11041	721.37585	22.67410	500.66803	-26.60930	1274.30347	-1010.01868	
4363	43.620	-811.90613	-13.84027	-643.54291	758.24170	-12.44782	-649.28253	-720.50104	23.63479	490.96860	722.06274	22.83220	500.55664	-25.85494	1273.95325	-1010.16919	
4364	43.630	-810.71490	-14.16426	-643.86340	758.97021	-12.66357	-649.31708	-718.98035	23.37127	490.76797	722.62799	23.32222	500.52628	-25.11150	1273.68042	-1010.50122	
4365	43.640	-810.06104	-14.42788	-644.16553	759.93304	-13.17356	-649.31036	-718.52740	23.77993	490.84555	724.13348	23.52351	500.31445	-24.31274	1273.15979	-1010.88037	
4366	43.650	-809.10413	-15.06390	-644.13190	761.12750	-13.63762	-649.35309	-717.64301	24.03164	490.71039	724.97577	23.65210	500.30115	-23.38302	1272.72754	-1011.23090	
4367	43.660	-808.19897	-15.29062	-643.97272	761.90521	-13.64369	-649.47626	-716.87585	24.37551	490.47644	725.89758	23.84926	500.09866	-22.44782	1272.27344	-1012.14069	
4368	43.670	-807.01526	-15.52821	-644.20038	762.65216	-13.88903	-649.65656	-715.22186	24.01529	490.13455	727.15332	24.08531	500.04276	-21.08744	1271.65808	-1012.88312	
4369	43.680	-806.34668	-15.70915	-644.48975	763.61475	-14.25845	-649.87573	-714.86780	24.98708	489.51447	727.99738	24.33915	500.03741	-20.30935	1271.41077	-1013.90955	
4370	43.690	-805.44519	-15.75341	-644.49976	764.84839	-14.40310	-649.63678	-713.29077	24.37036	490.17349	729.00330	24.54272	499.95428	-19.33709	1270.83960	-1015.05682	
4371	43.700	-804.18256	-16.30211	-644.49127	765.66064	-14.74156	-649.74292	-712.26416	24.31957	489.99899	729.54443	24.63315	499.93912	-18.36631	1270.38599	-1015.89801	
4372	43.710	-803.25970	-16.43169	-644.62970	766.57043	-14.93231	-649.85297	-711.46381	24.50416	489.92255	730.50146	24.62752	499.83051	-17.33849	1270.09045	-1016.75214	
4373	43.720	-802.63055	-16.47047	-644.57019	767.57428	-15.08229	-649.84186	-710.48126	24.78201	489.86404	731.58685	24.80709	499.88965	-16.49078	1269.96887	-1017.55072	
4374	43.730	-801.62103	-16.67786	-644.53876	768.38385	-15.41375	-649.94135	-709.50873	24.88377	489.75363	732.67212	25.14687	499.87909	-15.62921	1269.59570	-1018.19574	
4375	43.740	-800.22461	-16.70501	-644.73840	769.40515	-15.76937	-649.99377	-708.64026	25.10650	489.76346	733.65192	25.18212	499.85101	-14.58716	1269.12695	-1018.56470	
4376	43.750	-799.51776	-17.11585	-644.70581	770.33203	-15.79132	-650.12512	-707.57721	25.25304	489.76019	734.51355	25.41695	499.69766	-13.66130	1268.73132	-1018.98816	
4377	43.760	-798.62579	-17.33744	-644.88605	771.39886	-15.91358	-650.02802	-706.78101	25.41526	489.73035	735.04150	25.56391	499.63693	-12.87785	1268.76208	-1018.79016	
4378	43.770	-797.65985	-17.67039	-644.80017	772.21606	-16.32088	-650.13934	-705.78699	25.63759	489.69022	736.34351	25.60655	499.42352	-11.33771	1268.37097	-1018.99792	
4379	43.780	-796.44604	-17.95222	-644.77100	773.29510	-16.49804	-650.13922	-704.83856	25.77941	489.65500	737.32690	25.80004	499.34866	-10.72089	1268.16016	-1019.18628	
4380	43.790	-795.70587	-18.10893	-644.42523	774.49365	-16.42223	-650.08691	-703.86053	25.92234	489.47543	738.41388	25.94573	499.16620	-10.22331	1268.01367	-1019.19220	
4381	43.800	-794.65094	-18.26049	-644.81134	775.41003	-16.52718	-650.22699	-702.83911	25.99109	489.36145	739.46167	25.96297	499.05966	-8.74977	1267.68823	-1018.97638	
4382	43.810	-793.52087	-18.38465	-644.98370	776.23511	-16.82052	-650.13965	-701.89557	26.05357	489.36688	740.07959	26.05959	499.05215	-7.95281	1267.44458	-1018.91534	
4383	43.820	-792.59955	-18.56358	-644.99805	777.19733	-16.88688	-650.20898	-700.97784	26.13158	489.41980	741.11719	26.29431	499.18491	-7.14271	1267.25610	-1019.30286	
4384	43.830	-791.83881	-18.80486	-644.87286	778.35217	-17.06928	-650.34485	-699.81073	26.19669	489.35156	742.42004	26.34550	499.12952	-6.14562	1266.88831	-1019.40070	
4385	43.840	-790.77899	-19.12037	-645.02271	778.98755	-17.17770	-650.38892	-699.05078	26.23218	489.28125	743.37427	26.59229	499.23340	-5.47907	1266.78186	-1019.95673	
4386	43.850	-789.76099	-18.78863	-645.09357	780.17670	-17.12247	-650.25507	-698.15125	26.41801	489.16992	744.28979	26.50633	499.13629	-4.36390	1266.77039	-1020.69226	
4387	43.860	-788.88281	-18.98255	-645.07587	781.18585	-17.31642	-650.57190	-697.00256	26.38662	489.11182	745.09161	26.70764	499.08670	-3.30828	1266.43347	-1021.11493	
4388	43.870	-788.02417	-19.15676	-645.02527	781.95868	-17.51369	-650.61060	-696.09100	26.28458	489.20029	746.47974	26.95197	498.98199	-2.22099	1266.33533	-1021.85284	
4389	43.880	-786.87128	-19.45276	-645.24133	783.14606	-17.68075	-650.43994	-695.03802	26.31639	489.14737	747.32385	26.96439	499.08133	-1.32786	1265.94470	-1022.09174	
4390	43.890	-786.02856	-19.47670	-645.10785	783.91852	-17.74819	-650.60876	-693.90698	26.25662	489.13266	748.07318	26.87311	498.97025	-0.02461	1265.82434	-1022.64618	
4391	43.900	-785.02618	-19.35321	-645.20459	784.87036	-17.78798	-650.67572	-693.21216	26.39557	488.95236	749.15118	26.91868	498.77322	0.71021	1265.81433	-1023.09033	
4392	43.910	-784.04181	-19.37264	-645.20770	785.77502	-17.77081	-650.57434	-692.23669	26.66624	489.06741	750.04761	27.06816	498.81110	1.17427	1265.77686	-1023.08429	
4393	43.920	-783.19397	-19.47207	-645.19843	786.91779	-17.82608	-650.65021	-690.99237	26.53701	488.78778	750.85706	27.09447	498.80750	2.57013	1265.65466	-1023.38013	
4394	43.930	-782.23700	-19.50398	-645.21826	787.80438	-17.98687	-650.59070	-690.86279	27.28352	488.64728	752.00623	27.19755	498.67566	3.58439	1265.69727	-1023.24939	
4395	43.940	-781.37408	-19.61469	-645.31458	788.65326	-17.90426	-650.54028	-689.49152	26.91178	488.98984	752.86304	27.11363	498.70621	4.20470	1265.52515	-1023.35663	
4396	43.950	-780.19299	-19.59293	-645.49481	789.49695	-17.78255	-650.60065	-688.41425	26.77019	488.97729	753.64716	27.29150	498.81396	5.17039	1265.37976	-1022.79315	
4397	43.960	-779.38434	-19.59896	-645.26648	790.66632	-17.90242	-650.83862	-687.67004	26.78818	488.97653	754.71271	27.24767	498.74942	6.20444	1265.25146	-1022.42798	
4398	43.970	-778.42206	-19.71316	-645.22614	791.39453	-17.90680	-650.81122	-686.68042	26.75792	488.89758	755.77478	27.20998	498.70679	7.05580	1265.41187	-1022.20581	
4399	43.980	-777.57227	-19.54209	-645.23267	792.17188	-18.06704	-650.81317	-685.53430	26.75870	488.86029	756.85516	27.27663	498.71954	7.90094	1265.47192	-1022.01215	
4400	43.990	-776.61353	-19.60732	-645.44092	793.31750	-17.83220	-650.76959	-684.93140	26.67227	488.83716	757.37415	27.32540	498.82874	8.64873	1265.22803	-1021.65131	
4401	44.000	-775.74591	-19.45080	-645.38300	794.53522	-17.67957	-650.56848	-683.85358	26.61141	489.02179	758.40649	27.24211	498.77750	10.09843	1265.27173	-1021.88391	
4402	44.010	-774.88416	-19.65530	-645.22906	794.83234	-17.70576	-650.63397	-682.87524	26.78231	489.06885	759.49945	27.24215	498.68329	10.63100	1265.52539	-1021.80530	
4403	44.020	-774.17944	-19.82114	-645.25330	795.80627	-17.72801	-650.71320	-682.10376	26.74029	489.07925	760.20990	27.12152	498.68500	11.35274	1265.46106	-1021.91144	
4404	44.030	-772.91675	-19.87346	-645.56360	796.85559	-17.84655	-650.84399	-681.08807	26.71625	488.89594	760.65668	27.14663	498.80930	12.49900	1265.30359	-1022.14307	
4405	44.040	-772.22845	-19.81974	-645.47284	797.81409	-18.00330	-650.82050	-680.27905	26.73981	488.91000	761.96252	27.15792	498.69284	13.52126	1265.35608	-1022.41748	
4406	44.050	-771.25433	-19.78178	-645.27783	798.46088	-17.90845	-650.85632	-679.60675	26.81131	488.83871	762.78510	27.12652	498.59506	14.24026	1265.44177	-1022.59015	
4407	44.060	-770.71460	-19.74116	-645.16382	799.25812	-17.86934	-650.85217	-678.77429	26.89175	488.79697	763.41327	27.11215	498.69815	14.96652	1265.52869	-1022.92316	
4408	44.070	-769.51428	-19.46288	-645.40253	800.42694	-17.55599	-650.53925	-677.63885	26.54039	488.75555	764.62701	27.13488	498.65668	16.19197	1265.58911	-1023.36041	
4409	44.080	-768.93848	-19.46686	-645.49286	800.97156	-17.49760	-650.66760	-676.59412	26.34061	488.92200	765.25586	27.11747	498.70953	16.89140	1265.70178	-1023.56104	
4410	44.090	-768.06311	-19.33774	-645.48065	801.78918	-17.42451	-650.66583	-675.76038	25.87795	488.98825	765.94006	27.01312	498.50156	17.39226	1265.83728	-1023.39874	
4411	44.100	-767.34485	-19.61899	-645.21643	802.70428	-17.29860	-650.61859	-674.67383	25.64367	489.22733	766.89282	26.92437	498.59903	18.37741	1266.07996	-1023.44739	
4412	44.110	-766.46265	-19.38752	-645.34076	803.35309	-17.16606	-650.70227	-674.56836	26.22361	489.02145	767.74658	26.77700	498.62680	19.88771	1266.13184	-1023.30695	
